<svg preserveAspectRatio="none" overflow="visible" style="display: block;" width="27" height="27" viewBox="0 0 27 27" fill="none" xmlns="http://www.w3.org/2000/svg">
<g id="Icon">
<path id="Vector" d="M5.90625 17.2969C7.67812 17.2969 8.26875 9.87187 10.125 9.87187C11.9813 9.87187 12.4031 20.1656 14.4281 20.1656C16.2844 20.1656 16.7906 6.66563 18.8156 6.66563C19.8281 6.66563 20.3344 9.36562 21.0938 11.1375" stroke="#18342E" stroke-width="1.47656" stroke-linecap="round" stroke-linejoin="round"/>
<path id="Vector_2" d="M5.90625 18.4781C6.55864 18.4781 7.0875 17.9493 7.0875 17.2969C7.0875 16.6445 6.55864 16.1156 5.90625 16.1156C5.25386 16.1156 4.725 16.6445 4.725 17.2969C4.725 17.9493 5.25386 18.4781 5.90625 18.4781Z" fill="#18342E" stroke="#18342E" stroke-width="1.47656" stroke-linecap="round" stroke-linejoin="round"/>
<path id="Vector_3" d="M21.0938 12.3188C21.7461 12.3188 22.275 11.7899 22.275 11.1375C22.275 10.4851 21.7461 9.95625 21.0938 9.95625C20.4414 9.95625 19.9125 10.4851 19.9125 11.1375C19.9125 11.7899 20.4414 12.3188 21.0938 12.3188Z" fill="#18342E" stroke="#18342E" stroke-width="1.47656" stroke-linecap="round" stroke-linejoin="round"/>
</g>
</svg>
